<svg xmlns="http://www.w3.org/2000/svg" xmlns:xlink="http://www.w3.org/1999/xlink" width="500" zoomAndPan="magnify" viewBox="0 0 375 374.999991" height="500" preserveAspectRatio="xMidYMid meet" version="1.0"><path fill="#000000" d="M 176.660156 76.804688 C 159.226562 78.824219 138.832031 86.300781 124.960938 95.679688 C 115.949219 101.851562 104.445312 112.179688 99.820312 118.46875 C 97.449219 121.554688 95.078125 124.167969 94.601562 124.167969 C 94.128906 124.167969 93.65625 118.351562 93.65625 111.230469 C 93.65625 99.359375 93.417969 97.933594 91.046875 95.085938 C 89.386719 93.304688 86.539062 91.761719 83.929688 91.285156 C 80.136719 90.691406 79.070312 91.167969 75.867188 94.253906 L 72.3125 97.816406 L 72.3125 126.421875 C 72.3125 142.328125 72.785156 156.21875 73.496094 157.996094 C 75.632812 163.695312 80.253906 164.527344 108.832031 164.527344 C 125.195312 164.527344 136.222656 164.050781 138.714844 163.21875 C 145.828125 160.726562 147.488281 150.28125 141.324219 145.535156 C 138.832031 143.515625 136.578125 143.160156 124.484375 143.160156 C 116.894531 143.160156 110.253906 142.804688 109.898438 142.449219 C 107.410156 139.953125 128.636719 118.230469 140.253906 111.230469 C 156.621094 101.496094 170.96875 97.695312 190.886719 97.695312 C 203.339844 97.816406 207.371094 98.289062 216.144531 100.902344 C 256.9375 113.007812 283.734375 146.128906 286.578125 187.792969 C 289.1875 227.4375 268.554688 263.285156 232.984375 280.734375 C 218.636719 287.859375 206.421875 290.707031 190.296875 290.824219 C 172.628906 290.824219 153.0625 285.722656 141.085938 277.769531 C 138.59375 276.105469 134.328125 274.445312 131.71875 274.089844 C 127.804688 273.496094 126.5 273.96875 124.011719 276.460938 C 120.453125 280.023438 119.859375 285.957031 122.707031 290.113281 C 127.449219 296.761719 150.570312 306.851562 168.003906 309.9375 C 200.613281 315.632812 234.761719 308.15625 259.664062 289.996094 C 285.277344 271.238281 302.707031 242.394531 306.976562 211.53125 C 316.460938 143.753906 270.335938 84.519531 202.035156 76.6875 C 190.296875 75.378906 189.226562 75.378906 176.660156 76.804688 Z M 176.660156 76.804688 " fill-opacity="1" fill-rule="nonzero"/><path fill="#000000" d="M 183.300781 138.53125 L 180.214844 140.902344 L 180.214844 199.304688 L 197.765625 217.109375 C 207.371094 226.84375 216.621094 235.511719 218.398438 236.460938 C 226.222656 240.613281 233.574219 236.101562 233.574219 227.320312 C 233.574219 222.453125 232.984375 221.742188 217.6875 206.191406 L 201.679688 190.046875 L 201.324219 166.070312 C 200.96875 142.683594 200.96875 142.089844 198.121094 139.125 C 194.445312 135.207031 187.804688 134.96875 183.300781 138.53125 Z M 183.300781 138.53125 " fill-opacity="1" fill-rule="nonzero"/></svg>
